HIERARCHY
ROOT Hips
{
    OFFSET   0.000000   0.000000   0.000000
    CHANNELS 6 Xposition Yposition Zposition Zrotation Xrotation Yrotation
    JOINT Chest
    {
        OFFSET   0.000000   8.007230   0.000000
        CHANNELS 3 Zrotation Xrotation Yrotation
        JOINT Chest2
        {
            OFFSET   0.000000  22.077100   0.000000
            CHANNELS 3 Zrotation Xrotation Yrotation
            JOINT Neck
            {
                OFFSET   0.000000  23.254700   0.000000
                CHANNELS 3 Zrotation Xrotation Yrotation
                JOINT Head
                {
                    OFFSET   0.000010  14.370000   1.956610
                    CHANNELS 3 Zrotation Xrotation Yrotation
                    End Site
                    {
                        OFFSET   0.000000  19.566000   0.000000
                    }
                }
            }
            JOINT LeftCollar
            {
                OFFSET   3.911900  19.017000  -0.467063
                CHANNELS 3 Zrotation Xrotation Yrotation
                JOINT LeftShoulder
                {
                    OFFSET  10.383700   0.000000   0.000000
                    CHANNELS 3 Zrotation Xrotation Yrotation
                    JOINT LeftElbow
                    {
                        OFFSET  26.662100   0.001671   0.000522
                        CHANNELS 3 Zrotation Xrotation Yrotation
                        JOINT LeftWrist
                        {
                            OFFSET  28.869000   0.000037  -0.000114
                            CHANNELS 3 Zrotation Xrotation Yrotation
                            JOINT LeftFinger0
                            {
                                OFFSET   2.044650  -2.323450   3.252850
                                CHANNELS 3 Zrotation Xrotation Yrotation
                                JOINT LeftFinger01
                                {
                                    OFFSET   3.088140   0.000000   0.000000
                                    CHANNELS 3 Zrotation Xrotation Yrotation
                                    JOINT LeftFinger02
                                    {
                                        OFFSET   2.639460   0.000000   0.000000
                                        CHANNELS 3 Zrotation Xrotation Yrotation
                                        End Site
                                        {
                                            OFFSET   2.582190   0.000000   0.000000
                                        }
                                    }
                                }
                            }
                            JOINT LeftFinger1
                            {
                                OFFSET   8.364480   0.000000   3.252850
                                CHANNELS 3 Zrotation Xrotation Yrotation
                                JOINT LeftFinger11
                                {
                                    OFFSET   4.646930   0.000000   0.000000
                                    CHANNELS 3 Zrotation Xrotation Yrotation
                                    JOINT LeftFinger12
                                    {
                                        OFFSET   2.323470   0.000000   0.000000
                                        CHANNELS 3 Zrotation Xrotation Yrotation
                                        End Site
                                        {
                                            OFFSET   2.273050   0.000000   0.000000
                                        }
                                    }
                                }
                            }
                            JOINT LeftFinger2
                            {
                                OFFSET   8.364490   0.000016   1.078090
                                CHANNELS 3 Zrotation Xrotation Yrotation
                                JOINT LeftFinger21
                                {
                                    OFFSET   5.111620   0.000000   0.000000
                                    CHANNELS 3 Zrotation Xrotation Yrotation
                                    JOINT LeftFinger22
                                    {
                                        OFFSET   2.788150   0.000013   0.000000
                                        CHANNELS 3 Zrotation Xrotation Yrotation
                                        End Site
                                        {
                                            OFFSET   2.727660   0.000000   0.000000
                                        }
                                    }
                                }
                            }
                            JOINT LeftFinger3
                            {
                                OFFSET   7.899780   0.000016  -1.078090
                                CHANNELS 3 Zrotation Xrotation Yrotation
                                JOINT LeftFinger31
                                {
                                    OFFSET   4.646930   0.000000   0.000000
                                    CHANNELS 3 Zrotation Xrotation Yrotation
                                    JOINT LeftFinger32
                                    {
                                        OFFSET   2.323470   0.000000   0.000000
                                        CHANNELS 3 Zrotation Xrotation Yrotation
                                        End Site
                                        {
                                            OFFSET   2.273050   0.000000   0.000000
                                        }
                                    }
                                }
                            }
                            JOINT LeftFinger4
                            {
                                OFFSET   7.435080   0.000000  -3.252850
                                CHANNELS 3 Zrotation Xrotation Yrotation
                                JOINT LeftFinger41
                                {
                                    OFFSET   3.717550   0.000000   0.000000
                                    CHANNELS 3 Zrotation Xrotation Yrotation
                                    JOINT LeftFinger42
                                    {
                                        OFFSET   1.858760   0.000000   0.000000
                                        CHANNELS 3 Zrotation Xrotation Yrotation
                                        End Site
                                        {
                                            OFFSET   1.818440   0.000000   0.000000
                                        }
                                    }
                                }
                            }
                        }
                    }
                }
            }
            JOINT RightCollar
            {
                OFFSET  -3.911900  19.017000  -0.467064
                CHANNELS 3 Zrotation Xrotation Yrotation
                JOINT RightShoulder
                {
                    OFFSET -10.383700   0.000000   0.000000
                    CHANNELS 3 Zrotation Xrotation Yrotation
                    JOINT RightElbow
                    {
                        OFFSET -26.662100   0.001633   0.000260
                        CHANNELS 3 Zrotation Xrotation Yrotation
                        JOINT RightWrist
                        {
                            OFFSET -28.869000  -0.000045  -0.000080
                            CHANNELS 3 Zrotation Xrotation Yrotation
                            JOINT RightFinger0
                            {
                                OFFSET  -2.044660  -2.323490   3.252850
                                CHANNELS 3 Zrotation Xrotation Yrotation
                                JOINT RightFinger01
                                {
                                    OFFSET  -3.088140   0.000000   0.000000
                                    CHANNELS 3 Zrotation Xrotation Yrotation
                                    JOINT RightFinger02
                                    {
                                        OFFSET  -2.639450   0.000000   0.000000
                                        CHANNELS 3 Zrotation Xrotation Yrotation
                                        End Site
                                        {
                                            OFFSET  -2.582190   0.000000   0.000000
                                        }
                                    }
                                }
                            }
                            JOINT RightFinger1
                            {
                                OFFSET  -8.364480   0.000000   3.252850
                                CHANNELS 3 Zrotation Xrotation Yrotation
                                JOINT RightFinger11
                                {
                                    OFFSET  -4.646920   0.000000   0.000000
                                    CHANNELS 3 Zrotation Xrotation Yrotation
                                    JOINT RightFinger12
                                    {
                                        OFFSET  -2.323470   0.000000   0.000000
                                        CHANNELS 3 Zrotation Xrotation Yrotation
                                        End Site
                                        {
                                            OFFSET  -2.273050   0.000000   0.000000
                                        }
                                    }
                                }
                            }
                            JOINT RightFinger2
                            {
                                OFFSET  -8.364480   0.000000   1.078090
                                CHANNELS 3 Zrotation Xrotation Yrotation
                                JOINT RightFinger21
                                {
                                    OFFSET  -5.111610   0.000000   0.000000
                                    CHANNELS 3 Zrotation Xrotation Yrotation
                                    JOINT RightFinger22
                                    {
                                        OFFSET  -2.788160   0.000000   0.000000
                                        CHANNELS 3 Zrotation Xrotation Yrotation
                                        End Site
                                        {
                                            OFFSET  -2.727660   0.000000   0.000000
                                        }
                                    }
                                }
                            }
                            JOINT RightFinger3
                            {
                                OFFSET  -7.899780   0.000000  -1.078090
                                CHANNELS 3 Zrotation Xrotation Yrotation
                                JOINT RightFinger31
                                {
                                    OFFSET  -4.646930   0.000000   0.000000
                                    CHANNELS 3 Zrotation Xrotation Yrotation
                                    JOINT RightFinger32
                                    {
                                        OFFSET  -2.323470   0.000000   0.000000
                                        CHANNELS 3 Zrotation Xrotation Yrotation
                                        End Site
                                        {
                                            OFFSET  -2.273050   0.000000   0.000000
                                        }
                                    }
                                }
                            }
                            JOINT RightFinger4
                            {
                                OFFSET  -7.435090   0.000000  -3.252850
                                CHANNELS 3 Zrotation Xrotation Yrotation
                                JOINT RightFinger41
                                {
                                    OFFSET  -3.717550   0.000000   0.000000
                                    CHANNELS 3 Zrotation Xrotation Yrotation
                                    JOINT RightFinger42
                                    {
                                        OFFSET  -1.858760   0.000000   0.000000
                                        CHANNELS 3 Zrotation Xrotation Yrotation
                                        End Site
                                        {
                                            OFFSET  -1.818440   0.000000   0.000000
                                        }
                                    }
                                }
                            }
                        }
                    }
                }
            }
        }
    }
    JOINT LeftHip
    {
        OFFSET   9.782990   0.000000   0.000000
        CHANNELS 3 Zrotation Xrotation Yrotation
        JOINT LeftKnee
        {
            OFFSET  -0.000063 -41.789100   0.001657
            CHANNELS 3 Zrotation Xrotation Yrotation
            JOINT LeftAnkle
            {
                OFFSET   0.000078 -41.133200  -0.000113
                CHANNELS 3 Zrotation Xrotation Yrotation
                JOINT LeftToe
                {
                    OFFSET   0.000000  -6.358970  14.674500
                    CHANNELS 3 Zrotation Xrotation Yrotation
                    End Site
                    {
                        OFFSET   0.000000   0.000000   3.913200
                    }
                }
            }
        }
    }
    JOINT RightHip
    {
        OFFSET  -9.782990   0.000000   0.000000
        CHANNELS 3 Zrotation Xrotation Yrotation
        JOINT RightKnee
        {
            OFFSET   0.000053 -41.789200   0.000277
            CHANNELS 3 Zrotation Xrotation Yrotation
            JOINT RightAnkle
            {
                OFFSET   0.000030 -41.133200  -0.000150
                CHANNELS 3 Zrotation Xrotation Yrotation
                JOINT RightToe
                {
                    OFFSET   0.000000  -6.358960  14.674500
                    CHANNELS 3 Zrotation Xrotation Yrotation
                    End Site
                    {
                        OFFSET   0.000000   0.000000   3.913200
                    }
                }
            }
        }
    }
}
MOTION
Frames: 5
Frame Time:   0.016667
  0.985341  89.519300  -1.215770  -1.552810  -4.527600  -2.852450   0.845619   2.637010  -0.601651   1.721680   5.264690  -1.244220  -0.781819   0.812544   0.011321  -1.279170   1.645170  13.305800  -8.377510   4.982680   0.655791 -71.300900  19.128500 -11.021900  -1.225800  -1.550590  -8.639970   6.797050  -8.524060   3.122840  42.221200  28.849400 -57.960400 -23.456400   0.003677   0.001669  -6.725920  -0.000602   0.000121 -33.417100   1.957400  -2.963480 -27.382800  -0.002523   0.001552 -19.166800  -0.000244   0.002362 -28.231300  -0.804614   1.496030 -33.713500   0.001218  -0.000295 -22.453200   0.001293   0.002428 -28.279500  -1.575310   2.925910 -34.309700  -0.000216  -0.001392 -22.850200  -0.003054  -0.001056 -32.752200  -2.361920   3.672280 -49.241700   0.002080  -0.000702 -32.794900   0.000047  -0.003895   2.470860  -2.112100   5.652710  39.131800 -21.783000  57.247000 -25.403300 -37.542100  98.900100  20.325700 -23.459800  28.171300 -50.436600  35.523400  71.429100  13.228400   0.000383  -0.000100   1.614220  -0.002681  -0.000537   1.511930   0.107982   3.867650   1.240160  -0.004200   0.002995   0.868098  -0.002941   0.003550   0.691909   0.051633   3.868690   0.693837  -0.005456   0.003742   0.462095  -0.003627   0.003560   2.459060   0.080714   1.931690   2.460360  -0.002741   0.003096   1.638610  -0.001775  -0.007064   5.092210   0.166310   1.925840   7.642400  -0.002543   0.002968   5.089840  -0.002588   0.001142   2.125600   8.115960  -2.134410   0.348201   0.123417  11.552000  -2.886000  -4.282280   6.437520   0.000000   0.000000  -0.000000   0.015650   5.997420  -1.020270   0.296696   1.887980  -6.631540  -1.592120  -3.498880   4.102610   0.000000   0.000000   0.000000
  0.977402  89.520600  -1.234160  -1.546810  -4.540610  -2.821190   0.846041   2.637550  -0.601243   1.722510   5.265760  -1.243420  -0.782419   0.813901   0.011285  -1.277740   1.649690  13.299300  -8.373750   4.982060   0.654642 -71.284000  19.156900 -11.043900  -1.219800  -1.556020  -8.642140   6.809000  -8.529370   3.148490  42.221400  28.847800 -57.956400 -23.455600   0.003679   0.001660  -6.726400  -0.000598   0.000127 -33.417100   1.961230  -2.969170 -27.382900  -0.002574   0.001647 -19.166500  -0.000289   0.002361 -28.231200  -0.804644   1.495460 -33.718600   0.001208  -0.000319 -22.456600   0.001304   0.002452 -28.279600  -1.575190   2.921390 -34.321000  -0.000265  -0.001390 -22.857800  -0.003242  -0.001072 -32.767300  -2.361640   3.667500 -49.264200   0.002009  -0.000631 -32.809900   0.000000  -0.003840   2.471950  -2.112110   5.653440  39.130900 -21.766500  57.235800 -25.416100 -37.544300  98.936800  20.353300 -23.581800  28.178900 -50.493600  35.567200  71.479200  13.228300   0.000351  -0.000075   1.614150  -0.002727  -0.000502   1.484230   0.108093   3.879870   1.217580  -0.004163   0.003043   0.852305  -0.002917   0.003568   0.703523   0.052227   3.880880   0.705507  -0.005427   0.003793   0.469853  -0.003599   0.003607   2.509400   0.080565   1.932590   2.510640  -0.002666   0.003096   1.672100  -0.001737  -0.007222   5.123670   0.164022   1.926710   7.689420  -0.002550   0.002910   5.121150  -0.002549   0.001075   2.124910   8.128740  -2.136520   0.355386   0.082837  11.538300  -2.885190  -4.241550   6.421940  -0.000000   0.000000   0.000000   0.017442   6.001170  -1.021030   0.297905   1.886180  -6.651830  -1.597590  -3.492800   4.093930   0.000000   0.000000  -0.000000
  0.970423  89.521500  -1.251830  -1.541800  -4.554460  -2.793100   0.846425   2.638050  -0.600974   1.723270   5.266760  -1.242910  -0.782936   0.820611   0.011205  -1.277570   1.664120  13.299800  -8.371530   4.981540   0.653864 -71.268100  19.182600 -11.061300  -1.212670  -1.555700  -8.642370   6.813260  -8.543050   3.165620  42.220300  28.845900 -57.951800 -23.454800   0.003681   0.001661  -6.726950  -0.000597   0.000133 -33.423200   1.962600  -2.970250 -27.387900  -0.002629   0.001746 -19.166000  -0.000339   0.002357 -28.231200  -0.804641   1.495270 -33.730700   0.001196  -0.000340 -22.464600   0.001311   0.002476 -28.279600  -1.574980   2.920430 -34.340500  -0.000321  -0.001385 -22.870800  -0.003429  -0.001088 -32.782200  -2.361350   3.663080 -49.286400   0.001933  -0.000555 -32.824700   0.000000  -0.003786   2.472850  -2.111850   5.654080  39.111300 -21.755200  57.230800 -25.425200 -37.552100  98.925100  20.362300 -23.594400  28.174500 -50.465000  35.589200  71.543000  13.261000   0.000331  -0.000109   1.630460  -0.002779  -0.000464   1.472320   0.108140   3.801200   1.207820  -0.004131   0.003088   0.845479  -0.002897   0.003582   0.683043   0.052732   3.802190   0.685032  -0.005406   0.003833   0.456226  -0.003583   0.003649   2.505620   0.080287   1.896790   2.506880  -0.002599   0.003096   1.669590  -0.001691  -0.007378   5.115750   0.160746   1.891040   7.677390  -0.002554   0.002847   5.113150  -0.002516   0.001011   2.125360   8.153500  -2.141070   0.364167   0.031336  11.528700  -2.883540  -4.200880   6.408170  -0.000000   0.000000   0.000000   0.019608   6.007400  -1.021310   0.298517   1.881330  -6.669830  -1.603640  -3.484220   4.086730   0.000000   0.000000  -0.000000
  0.963433  89.522100  -1.269030  -1.537440  -4.568030  -2.768190   0.846800   2.638310  -0.600284   1.724000   5.267300  -1.241540  -0.783347   0.831364   0.011116  -1.278290   1.685110  13.300300  -8.368930   4.981110   0.653336 -71.255800  19.196200 -11.069900  -1.206280  -1.553430  -8.642590   6.816090  -8.556840   3.178580  42.220700  28.845700 -57.947400 -23.454300   0.003684   0.001665  -6.727580  -0.000597   0.000137 -33.429000   1.962920  -2.970400 -27.392700  -0.002684   0.001846 -19.165700  -0.000391   0.002345 -28.231200  -0.804638   1.495240 -33.739300   0.001183  -0.000359 -22.470300   0.001317   0.002501 -28.279500  -1.574850   2.920290 -34.353900  -0.000380  -0.001376 -22.879700  -0.003616  -0.001102 -32.791100  -2.361210   3.660550 -49.299600   0.001857  -0.000479 -32.833500   0.000000  -0.003729   2.473470  -2.111460   5.654420  39.086500 -21.750000  57.229500 -25.437900 -37.567000  98.898700  20.372800 -23.600100  28.174500 -50.433500  35.591500  71.588700  13.305700   0.000310  -0.000143   1.652840  -0.002830  -0.000429   1.469330   0.108155   3.722540   1.205330  -0.004100   0.003131   0.843739  -0.002877   0.003596   0.662573   0.053118   3.723500   0.664558  -0.005383   0.003873   0.442599  -0.003568   0.003690   2.490640   0.080024   1.843330   2.491930  -0.002533   0.003095   1.659610  -0.001641  -0.007535   5.091100   0.158235   1.837800   7.640300  -0.002556   0.002784   5.088470  -0.002485   0.000945   2.125860   8.170750  -2.146530   0.369750  -0.001751  11.520500  -2.882650  -4.176520   6.396380  -0.000000   0.000000   0.000000   0.021944   6.014020  -1.021950   0.299424   1.875960  -6.686600  -1.610270  -3.474970   4.081420  -0.000000   0.000000   0.000000
  0.956247  89.522700  -1.286210  -1.533560  -4.580150  -2.747210   0.847188   2.638230  -0.598455   1.724690   5.267150  -1.237900  -0.783556   0.844110   0.011049  -1.279390   1.710680  13.296200  -8.364240   4.980560   0.652799 -71.248900  19.190800 -11.069300  -1.201170  -1.541690  -8.648570   6.812790  -8.561970   3.187150  42.224300  28.849100 -57.944500 -23.454700   0.003685   0.001679  -6.727920  -0.000592   0.000137 -33.428200   1.960460  -2.966780 -27.391900  -0.002736   0.001945 -19.165400  -0.000440   0.002327 -28.231100  -0.805617   1.498430 -33.732600   0.001169  -0.000372 -22.465900   0.001320   0.002525 -28.279400  -1.574920   2.921030 -34.346400  -0.000442  -0.001361 -22.874700  -0.003803  -0.001113 -32.785300  -2.361300   3.660770 -49.291100   0.001785  -0.000406 -32.827800  -0.000058  -0.003665   2.474140  -2.111240   5.653860  39.035900 -21.756600  57.221400 -25.440500 -37.602000  98.855700  20.383300 -23.608000  28.175700 -50.350400  35.518600  71.511800  13.320800   0.000267  -0.000072   1.660830  -0.002876  -0.000404   1.475870   0.108124   3.739260   1.210680  -0.004062   0.003174   0.847481  -0.002850   0.003612   0.673592   0.053360   3.740220   0.675573  -0.005342   0.003921   0.449930  -0.003547   0.003732   2.449580   0.079771   1.808480   2.450880  -0.002464   0.003089   1.632270  -0.001590  -0.007690   5.032320   0.157344   1.803170   7.552140  -0.002547   0.002728   5.029740  -0.002453   0.000871   2.124990   8.146010  -2.152010   0.374246   0.049130  11.512300  -2.891450  -4.191990   6.386470  -0.000000   0.000000  -0.000000   0.024076   6.018970  -1.023950   0.302179   1.872340  -6.702990  -1.617670  -3.466240   4.078470   0.000000   0.000000  -0.000000
